+ filenameToUse=/home/horvathandras/vatic/vatic/public/videouploads/DJI_0058_nagyon_sok_turas.avi
+ filenameNoDot=DJI_0058_nagyon_sok_turas_Homokmegy_2018.03.31._diffuz_kalaszos_T1
+ FullUploadPath=/home/horvathandras/vatic/vatic/public/videouploads/DJI_0058_nagyon_sok_turas.avi
+ VideoDataDir=/home/horvathandras/vatic/vatic/videos
+ AvailableObjectTypes='PozitívROI NegatívROI Túrás ~Friss ~Régebbi Rágás ~Friss ~Régebbi Törés ~Friss ~Régebbi Taposás ~Friss ~Régebbi EgészségesNövény Egyéb1 Egyéb2 Egyéb3 Egyéb4 Egyéb5'
++ dirname /home/horvathandras/vatic/vatic/vatic_publisher.sh
+ cd /home/horvathandras/vatic/vatic
+ touch /home/horvathandras/vatic/vatic/public/videouploads/DJI_0058_nagyon_sok_turas.avi
+ chmod 744 /home/horvathandras/vatic/vatic/public/videouploads/DJI_0058_nagyon_sok_turas.avi
+ mkdir /home/horvathandras/vatic/vatic/videos/DJI_0058_nagyon_sok_turas_Homokmegy_2018.03.31._diffuz_kalaszos_T1
+ turkic extract /home/horvathandras/vatic/vatic/public/videouploads/DJI_0058_nagyon_sok_turas.avi /home/horvathandras/vatic/vatic/videos/DJI_0058_nagyon_sok_turas_Homokmegy_2018.03.31._diffuz_kalaszos_T1 --no-resize
ffmpeg version 2.8.14-0ubuntu0.16.04.1 Copyright (c) 2000-2018 the FFmpeg developers
  built with gcc 5.4.0 (Ubuntu 5.4.0-6ubuntu1~16.04.9) 20160609
  configuration: --prefix=/usr --extra-version=0ubuntu0.16.04.1 --build-suffix=-ffmpeg --toolchain=hardened --libdir=/usr/lib/x86_64-linux-gnu --incdir=/usr/include/x86_64-linux-gnu --cc=cc --cxx=g++ --enable-gpl --enable-shared --disable-stripping --disable-decoder=libopenjpeg --disable-decoder=libschroedinger --enable-avresample --enable-avisynth --enable-gnutls --enable-ladspa --enable-libass --enable-libbluray --enable-libbs2b --enable-libcaca --enable-libcdio --enable-libflite --enable-libfontconfig --enable-libfreetype --enable-libfribidi --enable-libgme --enable-libgsm --enable-libmodplug --enable-libmp3lame --enable-libopenjpeg --enable-libopus --enable-libpulse --enable-librtmp --enable-libschroedinger --enable-libshine --enable-libsnappy --enable-libsoxr --enable-libspeex --enable-libssh --enable-libtheora --enable-libtwolame --enable-libvorbis --enable-libvpx --enable-libwavpack --enable-libwebp --enable-libx265 --enable-libxvid --enable-libzvbi --enable-openal --enable-opengl --enable-x11grab --enable-libdc1394 --enable-libiec61883 --enable-libzmq --enable-frei0r --enable-libx264 --enable-libopencv
  libavutil      54. 31.100 / 54. 31.100
  libavcodec     56. 60.100 / 56. 60.100
  libavformat    56. 40.101 / 56. 40.101
  libavdevice    56.  4.100 / 56.  4.100
  libavfilter     5. 40.101 /  5. 40.101
  libavresample   2.  1.  0 /  2.  1.  0
  libswscale      3.  1.101 /  3.  1.101
  libswresample   1.  2.101 /  1.  2.101
  libpostproc    53.  3.100 / 53.  3.100
Input #0, mov,mp4,m4a,3gp,3g2,mj2, from '/home/horvathandras/vatic/vatic/public/videouploads/DJI_0058_nagyon_sok_turas.avi':
  Metadata:
    major_brand     : qt  
    minor_version   : 537986816
    compatible_brands: qt  
    creation_time   : 2018-03-31 11:05:52
    location        : +46.516720+19.169243+29.100
    location-{    : +46.516720+19.169243+29.100
    comment         : DE=None, Mode=P, DSW=0001
  Duration: 00:01:22.55, start: 0.000000, bitrate: 100230 kb/s
    Stream #0:0(eng): Video: h264 (High) (avc1 / 0x31637661), yuv420p(tv, bt709), 3840x2160 [SAR 1:1 DAR 16:9], 100182 kb/s, 29.97 fps, 29.97 tbr, 30k tbn, 59.94 tbc (default)
    Metadata:
      creation_time   : 2018-03-31 11:05:52
      handler_name    : DJI.AVC
      encoder         : AVC encoder
    Stream #0:1(eng): Data: none (priv / 0x76697270), 45 kb/s
    Metadata:
      creation_time   : 2018-03-31 11:05:52
      handler_name    : DJI.Meta
Please use -b:a or -b:v, -b is ambiguous
[swscaler @ 0x1452560] deprecated pixel format used, make sure you did set range correctly
Output #0, image2, to '/tmp/pyvision-ffmpeg-600791790/%d.jpg':
  Metadata:
    major_brand     : qt  
    minor_version   : 537986816
    compatible_brands: qt  
    comment         : DE=None, Mode=P, DSW=0001
    location        : +46.516720+19.169243+29.100
    location-{    : +46.516720+19.169243+29.100
    encoder         : Lavf56.40.101
    Stream #0:0(eng): Video: mjpeg, yuvj420p(pc), 3840x2160 [SAR 1:1 DAR 16:9], q=2-31, 10000 kb/s, 29.97 fps, 29.97 tbn, 29.97 tbc (default)
    Metadata:
      creation_time   : 2018-03-31 11:05:52
      handler_name    : DJI.AVC
      encoder         : Lavc56.60.100 mjpeg
Stream mapping:
  Stream #0:0 -> #0:0 (h264 (native) -> mjpeg (native))
Press [q] to stop, [?] for help
frame=    1 fps=0.0 q=15.9 size=N/A time=00:00:00.03 bitrate=N/A    frame=    4 fps=2.7 q=22.7 size=N/A time=00:00:00.13 bitrate=N/A    frame=    9 fps=4.4 q=24.8 size=N/A time=00:00:00.30 bitrate=N/A    frame=   14 fps=5.3 q=24.8 size=N/A time=00:00:00.46 bitrate=N/A    frame=   19 fps=5.9 q=24.8 size=N/A time=00:00:00.63 bitrate=N/A    frame=   22 fps=5.9 q=24.8 size=N/A time=00:00:00.73 bitrate=N/A    frame=   25 fps=5.9 q=24.8 size=N/A time=00:00:00.83 bitrate=N/A    frame=   28 fps=5.7 q=24.8 size=N/A time=00:00:00.93 bitrate=N/A    frame=   32 fps=5.9 q=24.8 size=N/A time=00:00:01.06 bitrate=N/A    frame=   37 fps=6.1 q=24.8 size=N/A time=00:00:01.23 bitrate=N/A    frame=   42 fps=6.4 q=24.8 size=N/A time=00:00:01.40 bitrate=N/A    frame=   47 fps=6.5 q=24.8 size=N/A time=00:00:01.56 bitrate=N/A    frame=   50 fps=6.5 q=24.8 size=N/A time=00:00:01.66 bitrate=N/A    frame=   54 fps=6.6 q=24.8 size=N/A time=00:00:01.80 bitrate=N/A    frame=   58 fps=6.6 q=24.8 size=N/A time=00:00:01.93 bitrate=N/A    frame=   61 fps=6.5 q=24.8 size=N/A time=00:00:02.03 bitrate=N/A    frame=   65 fps=6.5 q=24.8 size=N/A time=00:00:02.16 bitrate=N/A    frame=   69 fps=6.5 q=24.8 size=N/A time=00:00:02.30 bitrate=N/A    frame=   74 fps=6.6 q=24.8 size=N/A time=00:00:02.46 bitrate=N/A    frame=   78 fps=6.6 q=24.8 size=N/A time=00:00:02.60 bitrate=N/A    frame=   83 fps=6.6 q=24.8 size=N/A time=00:00:02.76 bitrate=N/A    frame=   88 fps=6.7 q=24.8 size=N/A time=00:00:02.93 bitrate=N/A    frame=   91 fps=6.6 q=24.8 size=N/A time=00:00:03.03 bitrate=N/A    frame=   95 fps=6.7 q=24.8 size=N/A time=00:00:03.16 bitrate=N/A    frame=  100 fps=6.7 q=24.8 size=N/A time=00:00:03.33 bitrate=N/A    frame=  104 fps=6.7 q=24.8 size=N/A time=00:00:03.47 bitrate=N/A    frame=  108 fps=6.7 q=24.8 size=N/A time=00:00:03.60 bitrate=N/A    frame=  112 fps=6.8 q=24.8 size=N/A time=00:00:03.73 bitrate=N/A    frame=  115 fps=6.7 q=24.8 size=N/A time=00:00:03.83 bitrate=N/A    frame=  119 fps=6.7 q=24.8 size=N/A time=00:00:03.97 bitrate=N/A    frame=  123 fps=6.7 q=24.8 size=N/A time=00:00:04.10 bitrate=N/A    frame=  128 fps=6.8 q=24.8 size=N/A time=00:00:04.27 bitrate=N/A    frame=  133 fps=6.8 q=24.8 size=N/A time=00:00:04.43 bitrate=N/A    frame=  137 fps=6.8 q=24.8 size=N/A time=00:00:04.57 bitrate=N/A    frame=  141 fps=6.8 q=24.8 size=N/A time=00:00:04.70 bitrate=N/A    frame=  145 fps=6.8 q=24.8 size=N/A time=00:00:04.83 bitrate=N/A    frame=  149 fps=6.8 q=24.8 size=N/A time=00:00:04.97 bitrate=N/A    frame=  153 fps=6.8 q=24.8 size=N/A time=00:00:05.10 bitrate=N/A    frame=  158 fps=6.9 q=24.8 size=N/A time=00:00:05.27 bitrate=N/A    frame=  163 fps=6.9 q=24.8 size=N/A time=00:00:05.43 bitrate=N/A    frame=  168 fps=7.0 q=24.8 size=N/A time=00:00:05.60 bitrate=N/A    frame=  172 fps=7.0 q=24.8 size=N/A time=00:00:05.73 bitrate=N/A    frame=  176 fps=7.0 q=24.8 size=N/A time=00:00:05.87 bitrate=N/A    frame=  180 fps=7.0 q=24.8 size=N/A time=00:00:06.00 bitrate=N/A    frame=  185 fps=7.0 q=24.8 size=N/A time=00:00:06.17 bitrate=N/A    frame=  189 fps=7.0 q=24.8 size=N/A time=00:00:06.30 bitrate=N/A    frame=  193 fps=7.0 q=24.8 size=N/A time=00:00:06.43 bitrate=N/A    frame=  196 fps=6.9 q=24.8 size=N/A time=00:00:06.53 bitrate=N/A    frame=  201 fps=6.9 q=24.8 size=N/A time=00:00:06.70 bitrate=N/A    frame=  206 fps=6.9 q=24.8 size=N/A time=00:00:06.87 bitrate=N/A    frame=  211 fps=6.9 q=24.8 size=N/A time=00:00:07.04 bitrate=N/A    frame=  215 fps=6.9 q=24.8 size=N/A time=00:00:07.17 bitrate=N/A    frame=  218 fps=6.9 q=24.8 size=N/A time=00:00:07.27 bitrate=N/A    frame=  222 fps=6.9 q=24.8 size=N/A time=00:00:07.40 bitrate=N/A    frame=  225 fps=6.9 q=24.8 size=N/A time=00:00:07.50 bitrate=N/A    frame=  229 fps=6.9 q=24.8 size=N/A time=00:00:07.64 bitrate=N/A    frame=  233 fps=6.9 q=24.8 size=N/A time=00:00:07.77 bitrate=N/A    frame=  237 fps=6.9 q=24.8 size=N/A time=00:00:07.90 bitrate=N/A    frame=  241 fps=6.9 q=24.8 size=N/A time=00:00:08.04 bitrate=N/A    frame=  245 fps=6.9 q=24.8 size=N/A time=00:00:08.17 bitrate=N/A    frame=  249 fps=6.9 q=24.8 size=N/A time=00:00:08.30 bitrate=N/A    frame=  253 fps=6.9 q=24.8 size=N/A time=00:00:08.44 bitrate=N/A    frame=  258 fps=6.9 q=24.8 size=N/A time=00:00:08.60 bitrate=N/A    frame=  262 fps=6.9 q=24.8 size=N/A time=00:00:08.74 bitrate=N/A    frame=  266 fps=6.9 q=24.8 size=N/A time=00:00:08.87 bitrate=N/A    frame=  270 fps=6.9 q=24.8 size=N/A time=00:00:09.00 bitrate=N/A    frame=  273 fps=6.9 q=24.8 size=N/A time=00:00:09.10 bitrate=N/A    frame=  277 fps=6.9 q=24.8 size=N/A time=00:00:09.24 bitrate=N/A    frame=  281 fps=6.9 q=24.8 size=N/A time=00:00:09.37 bitrate=N/A    frame=  284 fps=6.9 q=24.8 size=N/A time=00:00:09.47 bitrate=N/A    frame=  288 fps=6.9 q=24.8 size=N/A time=00:00:09.60 bitrate=N/A    frame=  292 fps=6.9 q=24.8 size=N/A time=00:00:09.74 bitrate=N/A    frame=  296 fps=6.9 q=24.8 size=N/A time=00:00:09.87 bitrate=N/A    frame=  300 fps=6.9 q=24.8 size=N/A time=00:00:10.01 bitrate=N/A    frame=  303 fps=6.8 q=24.8 size=N/A time=00:00:10.11 bitrate=N/A    frame=  307 fps=6.8 q=24.8 size=N/A time=00:00:10.24 bitrate=N/A    frame=  311 fps=6.8 q=24.8 size=N/A time=00:00:10.37 bitrate=N/A    frame=  316 fps=6.8 q=24.8 size=N/A time=00:00:10.54 bitrate=N/A    frame=  321 fps=6.8 q=24.8 size=N/A time=00:00:10.71 bitrate=N/A    frame=  325 fps=6.8 q=24.8 size=N/A time=00:00:10.84 bitrate=N/A    frame=  329 fps=6.8 q=24.8 size=N/A time=00:00:10.97 bitrate=N/A    frame=  333 fps=6.8 q=24.8 size=N/A time=00:00:11.11 bitrate=N/A    frame=  338 fps=6.8 q=24.8 size=N/A time=00:00:11.27 bitrate=N/A    frame=  342 fps=6.8 q=24.8 size=N/A time=00:00:11.41 bitrate=N/A    frame=  347 fps=6.8 q=24.8 size=N/A time=00:00:11.57 bitrate=N/A    frame=  352 fps=6.9 q=24.8 size=N/A time=00:00:11.74 bitrate=N/A    frame=  357 fps=6.9 q=24.8 size=N/A time=00:00:11.91 bitrate=N/A    frame=  361 fps=6.9 q=24.8 size=N/A time=00:00:12.04 bitrate=N/A    frame=  365 fps=6.9 q=24.8 size=N/A time=00:00:12.17 bitrate=N/A    frame=  370 fps=6.9 q=24.8 size=N/A time=00:00:12.34 bitrate=N/A    frame=  374 fps=6.9 q=24.8 size=N/A time=00:00:12.47 bitrate=N/A    frame=  378 fps=6.9 q=24.8 size=N/A time=00:00:12.61 bitrate=N/A    frame=  382 fps=6.9 q=24.8 size=N/A time=00:00:12.74 bitrate=N/A    frame=  387 fps=6.9 q=24.8 size=N/A time=00:00:12.91 bitrate=N/A    frame=  390 fps=6.9 q=24.8 size=N/A time=00:00:13.01 bitrate=N/A    frame=  393 fps=6.9 q=24.8 size=N/A time=00:00:13.11 bitrate=N/A    frame=  397 fps=6.9 q=24.8 size=N/A time=00:00:13.24 bitrate=N/A    frame=  402 fps=6.9 q=24.8 size=N/A time=00:00:13.41 bitrate=N/A    frame=  406 fps=6.9 q=24.8 size=N/A time=00:00:13.54 bitrate=N/A    frame=  410 fps=6.9 q=24.8 size=N/A time=00:00:13.68 bitrate=N/A    frame=  414 fps=6.9 q=24.8 size=N/A time=00:00:13.81 bitrate=N/A    frame=  419 fps=6.9 q=24.8 size=N/A time=00:00:13.98 bitrate=N/A    frame=  422 fps=6.9 q=24.8 size=N/A time=00:00:14.08 bitrate=N/A    frame=  426 fps=6.9 q=24.8 size=N/A time=00:00:14.21 bitrate=N/A    frame=  430 fps=6.9 q=24.8 size=N/A time=00:00:14.34 bitrate=N/A    frame=  434 fps=6.9 q=24.8 size=N/A time=00:00:14.48 bitrate=N/A    frame=  438 fps=6.9 q=24.8 size=N/A time=00:00:14.61 bitrate=N/A    frame=  442 fps=6.9 q=24.8 size=N/A time=00:00:14.74 bitrate=N/A    frame=  446 fps=6.9 q=24.8 size=N/A time=00:00:14.88 bitrate=N/A    frame=  450 fps=6.9 q=24.8 size=N/A time=00:00:15.01 bitrate=N/A    frame=  453 fps=6.9 q=24.8 size=N/A time=00:00:15.11 bitrate=N/A    frame=  457 fps=6.9 q=24.8 size=N/A time=00:00:15.24 bitrate=N/A    frame=  461 fps=6.9 q=24.8 size=N/A time=00:00:15.38 bitrate=N/A    frame=  464 fps=6.8 q=24.8 size=N/A time=00:00:15.48 bitrate=N/A    frame=  468 fps=6.8 q=24.8 size=N/A time=00:00:15.61 bitrate=N/A    frame=  473 fps=6.9 q=24.8 size=N/A time=00:00:15.78 bitrate=N/A    frame=  478 fps=6.9 q=24.8 size=N/A time=00:00:15.94 bitrate=N/A    frame=  481 fps=6.9 q=24.8 size=N/A time=00:00:16.04 bitrate=N/A    frame=  486 fps=6.9 q=24.8 size=N/A time=00:00:16.21 bitrate=N/A    frame=  491 fps=6.9 q=24.8 size=N/A time=00:00:16.38 bitrate=N/A    frame=  495 fps=6.9 q=24.8 size=N/A time=00:00:16.51 bitrate=N/A    frame=  499 fps=6.9 q=24.8 size=N/A time=00:00:16.64 bitrate=N/A    frame=  504 fps=6.9 q=24.8 size=N/A time=00:00:16.81 bitrate=N/A    frame=  508 fps=6.9 q=24.8 size=N/A time=00:00:16.95 bitrate=N/A    frame=  511 fps=6.9 q=24.8 size=N/A time=00:00:17.05 bitrate=N/A    frame=  515 fps=6.9 q=24.8 size=N/A time=00:00:17.18 bitrate=N/A    frame=  519 fps=6.9 q=24.8 size=N/A time=00:00:17.31 bitrate=N/A    frame=  523 fps=6.9 q=24.8 size=N/A time=00:00:17.45 bitrate=N/A    frame=  527 fps=6.9 q=24.8 size=N/A time=00:00:17.58 bitrate=N/A    frame=  531 fps=6.9 q=24.8 size=N/A time=00:00:17.71 bitrate=N/A    frame=  536 fps=6.9 q=24.8 size=N/A time=00:00:17.88 bitrate=N/A    frame=  539 fps=6.9 q=24.8 size=N/A time=00:00:17.98 bitrate=N/A    frame=  544 fps=6.9 q=24.8 size=N/A time=00:00:18.15 bitrate=N/A    frame=  548 fps=6.9 q=24.8 size=N/A time=00:00:18.28 bitrate=N/A    frame=  552 fps=6.9 q=24.8 size=N/A time=00:00:18.41 bitrate=N/A    frame=  557 fps=6.9 q=24.8 size=N/A time=00:00:18.58 bitrate=N/A    frame=  561 fps=6.9 q=24.8 size=N/A time=00:00:18.71 bitrate=N/A    frame=  565 fps=6.9 q=24.8 size=N/A time=00:00:18.85 bitrate=N/A    frame=  569 fps=6.9 q=24.8 size=N/A time=00:00:18.98 bitrate=N/A    frame=  571 fps=6.9 q=24.8 size=N/A time=00:00:19.05 bitrate=N/A    frame=  574 fps=6.9 q=24.8 size=N/A time=00:00:19.15 bitrate=N/A    frame=  578 fps=6.9 q=24.8 size=N/A time=00:00:19.28 bitrate=N/A    frame=  583 fps=6.9 q=24.8 size=N/A time=00:00:19.45 bitrate=N/A    frame=  588 fps=6.9 q=24.8 size=N/A time=00:00:19.61 bitrate=N/A    frame=  592 fps=6.9 q=24.8 size=N/A time=00:00:19.75 bitrate=N/A    frame=  596 fps=6.9 q=24.8 size=N/A time=00:00:19.88 bitrate=N/A    frame=  600 fps=6.9 q=24.8 size=N/A time=00:00:20.02 bitrate=N/A    frame=  602 fps=6.9 q=24.8 size=N/A time=00:00:20.08 bitrate=N/A    frame=  606 fps=6.9 q=24.8 size=N/A time=00:00:20.22 bitrate=N/A    frame=  610 fps=6.9 q=24.8 size=N/A time=00:00:20.35 bitrate=N/A    frame=  615 fps=6.9 q=24.8 size=N/A time=00:00:20.52 bitrate=N/A    frame=  619 fps=6.9 q=24.8 size=N/A time=00:00:20.65 bitrate=N/A    frame=  623 fps=6.9 q=24.8 size=N/A time=00:00:20.78 bitrate=N/A    frame=  627 fps=6.9 q=24.8 size=N/A time=00:00:20.92 bitrate=N/A    frame=  631 fps=6.9 q=24.8 size=N/A time=00:00:21.05 bitrate=N/A    frame=  635 fps=6.9 q=24.8 size=N/A time=00:00:21.18 bitrate=N/A    frame=  639 fps=6.9 q=24.8 size=N/A time=00:00:21.32 bitrate=N/A    frame=  643 fps=6.9 q=24.8 size=N/A time=00:00:21.45 bitrate=N/A    frame=  648 fps=6.9 q=24.8 size=N/A time=00:00:21.62 bitrate=N/A    frame=  652 fps=6.9 q=24.8 size=N/A time=00:00:21.75 bitrate=N/A    frame=  656 fps=6.9 q=24.8 size=N/A time=00:00:21.88 bitrate=N/A    frame=  659 fps=6.9 q=24.8 size=N/A time=00:00:21.98 bitrate=N/A    frame=  663 fps=6.9 q=24.8 size=N/A time=00:00:22.12 bitrate=N/A    frame=  667 fps=6.9 q=24.8 size=N/A time=00:00:22.25 bitrate=N/A    frame=  671 fps=6.9 q=24.8 size=N/A time=00:00:22.38 bitrate=N/A    frame=  675 fps=6.9 q=24.8 size=N/A time=00:00:22.52 bitrate=N/A    frame=  678 fps=6.9 q=24.8 size=N/A time=00:00:22.62 bitrate=N/A    frame=  682 fps=6.9 q=24.8 size=N/A time=00:00:22.75 bitrate=N/A    frame=  686 fps=6.9 q=24.8 size=N/A time=00:00:22.88 bitrate=N/A    frame=  690 fps=6.9 q=24.8 size=N/A time=00:00:23.02 bitrate=N/A    frame=  692 fps=6.9 q=24.8 size=N/A time=00:00:23.08 bitrate=N/A    frame=  696 fps=6.9 q=24.8 size=N/A time=00:00:23.22 bitrate=N/A    frame=  700 fps=6.9 q=24.8 size=N/A time=00:00:23.35 bitrate=N/A    frame=  704 fps=6.9 q=24.8 size=N/A time=00:00:23.49 bitrate=N/A    frame=  708 fps=6.9 q=24.8 size=N/A time=00:00:23.62 bitrate=N/A    frame=  712 fps=6.9 q=24.8 size=N/A time=00:00:23.75 bitrate=N/A    frame=  716 fps=6.9 q=24.8 size=N/A time=00:00:23.89 bitrate=N/A    frame=  720 fps=6.9 q=24.8 size=N/A time=00:00:24.02 bitrate=N/A    frame=  724 fps=6.9 q=24.8 size=N/A time=00:00:24.15 bitrate=N/A    frame=  728 fps=6.9 q=24.8 size=N/A time=00:00:24.29 bitrate=N/A    frame=  732 fps=6.9 q=24.8 size=N/A time=00:00:24.42 bitrate=N/A    frame=  736 fps=6.9 q=24.8 size=N/A time=00:00:24.55 bitrate=N/A    frame=  740 fps=6.9 q=24.8 size=N/A time=00:00:24.69 bitrate=N/A    frame=  744 fps=6.9 q=24.8 size=N/A time=00:00:24.82 bitrate=N/A    frame=  748 fps=6.9 q=24.8 size=N/A time=00:00:24.95 bitrate=N/A    frame=  751 fps=6.9 q=24.8 size=N/A time=00:00:25.05 bitrate=N/A    frame=  756 fps=6.9 q=24.8 size=N/A time=00:00:25.22 bitrate=N/A    frame=  761 fps=6.9 q=24.8 size=N/A time=00:00:25.39 bitrate=N/A    frame=  765 fps=6.9 q=24.8 size=N/A time=00:00:25.52 bitrate=N/A    frame=  769 fps=6.9 q=24.8 size=N/A time=00:00:25.65 bitrate=N/A    frame=  773 fps=6.9 q=24.8 size=N/A time=00:00:25.79 bitrate=N/A    frame=  777 fps=6.9 q=24.8 size=N/A time=00:00:25.92 bitrate=N/A    frame=  780 fps=6.9 q=24.8 size=N/A time=00:00:26.02 bitrate=N/A    frame=  783 fps=6.9 q=24.8 size=N/A time=00:00:26.12 bitrate=N/A    frame=  787 fps=6.9 q=24.8 size=N/A time=00:00:26.25 bitrate=N/A    frame=  791 fps=6.9 q=24.8 size=N/A time=00:00:26.39 bitrate=N/A    frame=  794 fps=6.9 q=24.8 size=N/A time=00:00:26.49 bitrate=N/A    frame=  798 fps=6.9 q=24.8 size=N/A time=00:00:26.62 bitrate=N/A    frame=  802 fps=6.9 q=24.8 size=N/A time=00:00:26.76 bitrate=N/A    frame=  806 fps=6.9 q=24.8 size=N/A time=00:00:26.89 bitrate=N/A    frame=  810 fps=6.9 q=24.8 size=N/A time=00:00:27.02 bitrate=N/A    frame=  814 fps=6.9 q=24.8 size=N/A time=00:00:27.16 bitrate=N/A    frame=  818 fps=6.9 q=24.8 size=N/A time=00:00:27.29 bitrate=N/A    frame=  821 fps=6.9 q=24.8 size=N/A time=00:00:27.39 bitrate=N/A    frame=  825 fps=6.9 q=24.8 size=N/A time=00:00:27.52 bitrate=N/A    frame=  829 fps=6.9 q=24.8 size=N/A time=00:00:27.66 bitrate=N/A    frame=  833 fps=6.9 q=24.8 size=N/A time=00:00:27.79 bitrate=N/A    frame=  837 fps=6.9 q=24.8 size=N/A time=00:00:27.92 bitrate=N/A    frame=  841 fps=6.9 q=24.8 size=N/A time=00:00:28.06 bitrate=N/A    frame=  845 fps=6.9 q=24.8 size=N/A time=00:00:28.19 bitrate=N/A    frame=  849 fps=6.9 q=24.8 size=N/A time=00:00:28.32 bitrate=N/A    frame=  853 fps=6.9 q=24.8 size=N/A time=00:00:28.46 bitrate=N/A    frame=  857 fps=6.9 q=24.8 size=N/A time=00:00:28.59 bitrate=N/A    frame=  861 fps=6.9 q=24.8 size=N/A time=00:00:28.72 bitrate=N/A    frame=  865 fps=6.9 q=24.8 size=N/A time=00:00:28.86 bitrate=N/A    frame=  869 fps=6.9 q=24.8 size=N/A time=00:00:28.99 bitrate=N/A    frame=  872 fps=6.9 q=24.8 size=N/A time=00:00:29.09 bitrate=N/A    frame=  876 fps=6.9 q=24.8 size=N/A time=00:00:29.22 bitrate=N/A    frame=  880 fps=6.9 q=24.8 size=N/A time=00:00:29.36 bitrate=N/A    frame=  884 fps=6.9 q=24.8 size=N/A time=00:00:29.49 bitrate=N/A    frame=  888 fps=6.9 q=24.8 size=N/A time=00:00:29.62 bitrate=N/A    frame=  892 fps=6.9 q=24.8 size=N/A time=00:00:29.76 bitrate=N/A    frame=  896 fps=6.9 q=24.8 size=N/A time=00:00:29.89 bitrate=N/A    frame=  900 fps=6.9 q=24.8 size=N/A time=00:00:30.03 bitrate=N/A    frame=  904 fps=6.9 q=24.8 size=N/A time=00:00:30.16 bitrate=N/A    frame=  908 fps=6.9 q=24.8 size=N/A time=00:00:30.29 bitrate=N/A    frame=  911 fps=6.9 q=24.8 size=N/A time=00:00:30.39 bitrate=N/A    frame=  915 fps=6.9 q=24.8 size=N/A time=00:00:30.53 bitrate=N/A    frame=  919 fps=6.9 q=24.8 size=N/A time=00:00:30.66 bitrate=N/A    frame=  923 fps=6.9 q=24.8 size=N/A time=00:00:30.79 bitrate=N/A    frame=  927 fps=6.9 q=24.8 size=N/A time=00:00:30.93 bitrate=N/A    frame=  931 fps=6.9 q=24.8 size=N/A time=00:00:31.06 bitrate=N/A    frame=  934 fps=6.9 q=24.8 size=N/A time=00:00:31.16 bitrate=N/A    frame=  938 fps=6.9 q=24.8 size=N/A time=00:00:31.29 bitrate=N/A    frame=  943 fps=6.9 q=24.8 size=N/A time=00:00:31.46 bitrate=N/A    frame=  947 fps=6.9 q=24.8 size=N/A time=00:00:31.59 bitrate=N/A    frame=  951 fps=6.9 q=24.8 size=N/A time=00:00:31.73 bitrate=N/A    frame=  955 fps=6.9 q=24.8 size=N/A time=00:00:31.86 bitrate=N/A    frame=  958 fps=6.9 q=24.8 size=N/A time=00:00:31.96 bitrate=N/A    frame=  962 fps=6.9 q=24.8 size=N/A time=00:00:32.09 bitrate=N/A    frame=  966 fps=6.9 q=24.8 size=N/A time=00:00:32.23 bitrate=N/A    frame=  970 fps=6.9 q=24.8 size=N/A time=00:00:32.36 bitrate=N/A    frame=  974 fps=6.9 q=24.8 size=N/A time=00:00:32.49 bitrate=N/A    frame=  978 fps=6.9 q=24.8 size=N/A time=00:00:32.63 bitrate=N/A    frame=  982 fps=6.9 q=24.8 size=N/A time=00:00:32.76 bitrate=N/A    frame=  986 fps=6.9 q=24.8 size=N/A time=00:00:32.89 bitrate=N/A    frame=  990 fps=6.9 q=24.8 size=N/A time=00:00:33.03 bitrate=N/A    frame=  993 fps=6.9 q=24.8 size=N/A time=00:00:33.13 bitrate=N/A    frame=  997 fps=6.9 q=24.8 size=N/A time=00:00:33.26 bitrate=N/A    frame= 1001 fps=6.9 q=24.8 size=N/A time=00:00:33.40 bitrate=N/A    frame= 1005 fps=6.9 q=24.8 size=N/A time=00:00:33.53 bitrate=N/A    frame= 1009 fps=6.9 q=24.8 size=N/A time=00:00:33.66 bitrate=N/A    frame= 1013 fps=6.9 q=24.8 size=N/A time=00:00:33.80 bitrate=N/A    frame= 1017 fps=6.9 q=24.8 size=N/A time=00:00:33.93 bitrate=N/A    frame= 1020 fps=6.8 q=24.8 size=N/A time=00:00:34.03 bitrate=N/A    frame= 1023 fps=6.8 q=24.8 size=N/A time=00:00:34.13 bitrate=N/A    frame= 1027 fps=6.8 q=24.8 size=N/A time=00:00:34.26 bitrate=N/A    frame= 1031 fps=6.8 q=24.8 size=N/A time=00:00:34.40 bitrate=N/A    frame= 1035 fps=6.8 q=24.8 size=N/A time=00:00:34.53 bitrate=N/A    frame= 1039 fps=6.8 q=24.8 size=N/A time=00:00:34.66 bitrate=N/A    frame= 1043 fps=6.8 q=24.8 size=N/A time=00:00:34.80 bitrate=N/A    frame= 1047 fps=6.8 q=24.8 size=N/A time=00:00:34.93 bitrate=N/A    frame= 1051 fps=6.8 q=24.8 size=N/A time=00:00:35.06 bitrate=N/A    frame= 1055 fps=6.8 q=24.8 size=N/A time=00:00:35.20 bitrate=N/A    frame= 1059 fps=6.8 q=24.8 size=N/A time=00:00:35.33 bitrate=N/A    frame= 1064 fps=6.8 q=24.8 size=N/A time=00:00:35.50 bitrate=N/A    frame= 1068 fps=6.8 q=24.8 size=N/A time=00:00:35.63 bitrate=N/A    frame= 1072 fps=6.8 q=24.8 size=N/A time=00:00:35.76 bitrate=N/A    frame= 1076 fps=6.8 q=24.8 size=N/A time=00:00:35.90 bitrate=N/A    frame= 1080 fps=6.8 q=24.8 size=N/A time=00:00:36.03 bitrate=N/A    frame= 1084 fps=6.8 q=24.8 size=N/A time=00:00:36.16 bitrate=N/A    frame= 1088 fps=6.8 q=24.8 size=N/A time=00:00:36.30 bitrate=N/A    frame= 1091 fps=6.8 q=24.8 size=N/A time=00:00:36.40 bitrate=N/A    frame= 1095 fps=6.8 q=24.8 size=N/A time=00:00:36.53 bitrate=N/A    frame= 1099 fps=6.8 q=24.8 size=N/A time=00:00:36.66 bitrate=N/A    frame= 1103 fps=6.8 q=24.8 size=N/A time=00:00:36.80 bitrate=N/A    frame= 1107 fps=6.8 q=24.8 size=N/A time=00:00:36.93 bitrate=N/A    frame= 1111 fps=6.8 q=24.8 size=N/A time=00:00:37.07 bitrate=N/A    frame= 1116 fps=6.8 q=24.8 size=N/A time=00:00:37.23 bitrate=N/A    frame= 1121 fps=6.9 q=24.8 size=N/A time=00:00:37.40 bitrate=N/A    frame= 1126 fps=6.9 q=24.8 size=N/A time=00:00:37.57 bitrate=N/A    frame= 1130 fps=6.9 q=24.8 size=N/A time=00:00:37.70 bitrate=N/A    frame= 1134 fps=6.9 q=24.8 size=N/A time=00:00:37.83 bitrate=N/A    frame= 1137 fps=6.8 q=24.8 size=N/A time=00:00:37.93 bitrate=N/A    frame= 1140 fps=6.8 q=24.8 size=N/A time=00:00:38.03 bitrate=N/A    frame= 1144 fps=6.8 q=24.8 size=N/A time=00:00:38.17 bitrate=N/A    frame= 1147 fps=6.8 q=24.8 size=N/A time=00:00:38.27 bitrate=N/A    frame= 1151 fps=6.8 q=24.8 size=N/A time=00:00:38.40 bitrate=N/A    frame= 1155 fps=6.8 q=24.8 size=N/A time=00:00:38.53 bitrate=N/A    frame= 1159 fps=6.8 q=24.8 size=N/A time=00:00:38.67 bitrate=N/A    frame= 1163 fps=6.8 q=24.8 size=N/A time=00:00:38.80 bitrate=N/A    frame= 1167 fps=6.8 q=24.8 size=N/A time=00:00:38.93 bitrate=N/A    frame= 1170 fps=6.8 q=24.8 size=N/A time=00:00:39.03 bitrate=N/A    frame= 1173 fps=6.8 q=24.8 size=N/A time=00:00:39.13 bitrate=N/A    frame= 1176 fps=6.8 q=24.8 size=N/A time=00:00:39.23 bitrate=N/A    frame= 1180 fps=6.8 q=24.8 size=N/A time=00:00:39.37 bitrate=N/A    frame= 1183 fps=6.8 q=24.8 size=N/A time=00:00:39.47 bitrate=N/A    frame= 1187 fps=6.8 q=24.8 size=N/A time=00:00:39.60 bitrate=N/A    frame= 1190 fps=6.8 q=24.8 size=N/A time=00:00:39.70 bitrate=N/A    frame= 1194 fps=6.8 q=24.8 size=N/A time=00:00:39.83 bitrate=N/A    frame= 1198 fps=6.8 q=24.8 size=N/A time=00:00:39.97 bitrate=N/A    frame= 1201 fps=6.8 q=24.8 size=N/A time=00:00:40.07 bitrate=N/A    frame= 1205 fps=6.8 q=24.8 size=N/A time=00:00:40.20 bitrate=N/A    frame= 1208 fps=6.8 q=24.8 size=N/A time=00:00:40.30 bitrate=N/A    frame= 1212 fps=6.8 q=24.8 size=N/A time=00:00:40.44 bitrate=N/A    frame= 1216 fps=6.8 q=24.8 size=N/A time=00:00:40.57 bitrate=N/A    frame= 1220 fps=6.8 q=24.8 size=N/A time=00:00:40.70 bitrate=N/A    frame= 1223 fps=6.8 q=24.8 size=N/A time=00:00:40.80 bitrate=N/A    frame= 1227 fps=6.8 q=24.8 size=N/A time=00:00:40.94 bitrate=N/A    frame= 1230 fps=6.8 q=24.8 size=N/A time=00:00:41.04 bitrate=N/A    frame= 1233 fps=6.8 q=24.8 size=N/A time=00:00:41.14 bitrate=N/A    frame= 1236 fps=6.8 q=24.8 size=N/A time=00:00:41.24 bitrate=N/A    frame= 1240 fps=6.8 q=24.8 size=N/A time=00:00:41.37 bitrate=N/A    frame= 1243 fps=6.8 q=24.8 size=N/A time=00:00:41.47 bitrate=N/A    frame= 1247 fps=6.8 q=24.8 size=N/A time=00:00:41.60 bitrate=N/A    frame= 1250 fps=6.8 q=24.8 size=N/A time=00:00:41.70 bitrate=N/A    frame= 1253 fps=6.8 q=24.8 size=N/A time=00:00:41.80 bitrate=N/A    frame= 1256 fps=6.8 q=24.8 size=N/A time=00:00:41.90 bitrate=N/A    frame= 1260 fps=6.8 q=24.8 size=N/A time=00:00:42.04 bitrate=N/A    frame= 1263 fps=6.8 q=24.8 size=N/A time=00:00:42.14 bitrate=N/A    frame= 1267 fps=6.8 q=24.8 size=N/A time=00:00:42.27 bitrate=N/A    frame= 1272 fps=6.8 q=24.8 size=N/A time=00:00:42.44 bitrate=N/A    frame= 1276 fps=6.8 q=24.8 size=N/A time=00:00:42.57 bitrate=N/A    frame= 1280 fps=6.8 q=24.8 size=N/A time=00:00:42.70 bitrate=N/A    frame= 1284 fps=6.8 q=24.8 size=N/A time=00:00:42.84 bitrate=N/A    frame= 1288 fps=6.8 q=24.8 size=N/A time=00:00:42.97 bitrate=N/A    frame= 1291 fps=6.8 q=24.8 size=N/A time=00:00:43.07 bitrate=N/A    frame= 1295 fps=6.8 q=24.8 size=N/A time=00:00:43.20 bitrate=N/A    frame= 1299 fps=6.8 q=24.8 size=N/A time=00:00:43.34 bitrate=N/A    frame= 1303 fps=6.8 q=24.8 size=N/A time=00:00:43.47 bitrate=N/A    frame= 1306 fps=6.8 q=24.8 size=N/A time=00:00:43.57 bitrate=N/A    frame= 1309 fps=6.8 q=24.8 size=N/A time=00:00:43.67 bitrate=N/A    frame= 1313 fps=6.8 q=24.8 size=N/A time=00:00:43.81 bitrate=N/A    frame= 1316 fps=6.8 q=24.8 size=N/A time=00:00:43.91 bitrate=N/A    frame= 1320 fps=6.8 q=24.8 size=N/A time=00:00:44.04 bitrate=N/A    frame= 1323 fps=6.8 q=24.8 size=N/A time=00:00:44.14 bitrate=N/A    frame= 1326 fps=6.7 q=24.8 size=N/A time=00:00:44.24 bitrate=N/A    frame= 1329 fps=6.7 q=24.8 size=N/A time=00:00:44.34 bitrate=N/A    frame= 1333 fps=6.7 q=24.8 size=N/A time=00:00:44.47 bitrate=N/A    frame= 1337 fps=6.7 q=24.8 size=N/A time=00:00:44.61 bitrate=N/A    frame= 1341 fps=6.7 q=24.8 size=N/A time=00:00:44.74 bitrate=N/A    frame= 1345 fps=6.7 q=24.8 size=N/A time=00:00:44.87 bitrate=N/A    frame= 1349 fps=6.7 q=24.8 size=N/A time=00:00:45.01 bitrate=N/A    frame= 1352 fps=6.7 q=24.8 size=N/A time=00:00:45.11 bitrate=N/A    frame= 1356 fps=6.7 q=24.8 size=N/A time=00:00:45.24 bitrate=N/A    frame= 1360 fps=6.7 q=24.8 size=N/A time=00:00:45.37 bitrate=N/A    frame= 1364 fps=6.7 q=24.8 size=N/A time=00:00:45.51 bitrate=N/A    frame= 1368 fps=6.7 q=24.8 size=N/A time=00:00:45.64 bitrate=N/A    frame= 1372 fps=6.7 q=24.8 size=N/A time=00:00:45.77 bitrate=N/A    frame= 1376 fps=6.7 q=24.8 size=N/A time=00:00:45.91 bitrate=N/A    frame= 1380 fps=6.7 q=24.8 size=N/A time=00:00:46.04 bitrate=N/A    frame= 1383 fps=6.7 q=24.8 size=N/A time=00:00:46.14 bitrate=N/A    frame= 1387 fps=6.7 q=24.8 size=N/A time=00:00:46.27 bitrate=N/A    frame= 1392 fps=6.7 q=24.8 size=N/A time=00:00:46.44 bitrate=N/A    frame= 1396 fps=6.7 q=24.8 size=N/A time=00:00:46.57 bitrate=N/A    frame= 1401 fps=6.8 q=24.8 size=N/A time=00:00:46.74 bitrate=N/A    frame= 1405 fps=6.8 q=24.8 size=N/A time=00:00:46.88 bitrate=N/A    frame= 1408 fps=6.8 q=24.8 size=N/A time=00:00:46.98 bitrate=N/A    frame= 1412 fps=6.8 q=24.8 size=N/A time=00:00:47.11 bitrate=N/A    frame= 1416 fps=6.8 q=24.8 size=N/A time=00:00:47.24 bitrate=N/A    frame= 1420 fps=6.8 q=24.8 size=N/A time=00:00:47.38 bitrate=N/A    frame= 1424 fps=6.8 q=24.8 size=N/A time=00:00:47.51 bitrate=N/A    frame= 1428 fps=6.8 q=24.8 size=N/A time=00:00:47.64 bitrate=N/A    frame= 1433 fps=6.8 q=24.8 size=N/A time=00:00:47.81 bitrate=N/A    frame= 1437 fps=6.8 q=24.8 size=N/A time=00:00:47.94 bitrate=N/A    frame= 1441 fps=6.8 q=24.8 size=N/A time=00:00:48.08 bitrate=N/A    frame= 1444 fps=6.8 q=24.8 size=N/A time=00:00:48.18 bitrate=N/A    frame= 1448 fps=6.8 q=24.8 size=N/A time=00:00:48.31 bitrate=N/A    frame= 1452 fps=6.8 q=24.8 size=N/A time=00:00:48.44 bitrate=N/A    frame= 1456 fps=6.8 q=24.8 size=N/A time=00:00:48.58 bitrate=N/A    frame= 1459 fps=6.8 q=24.8 size=N/A time=00:00:48.68 bitrate=N/A    frame= 1462 fps=6.8 q=24.8 size=N/A time=00:00:48.78 bitrate=N/A    frame= 1466 fps=6.8 q=24.8 size=N/A time=00:00:48.91 bitrate=N/A    frame= 1470 fps=6.8 q=24.8 size=N/A time=00:00:49.04 bitrate=N/A    frame= 1474 fps=6.8 q=24.8 size=N/A time=00:00:49.18 bitrate=N/A    frame= 1478 fps=6.8 q=24.8 size=N/A time=00:00:49.31 bitrate=N/A    frame= 1482 fps=6.8 q=24.8 size=N/A time=00:00:49.44 bitrate=N/A    frame= 1486 fps=6.8 q=24.8 size=N/A time=00:00:49.58 bitrate=N/A    frame= 1490 fps=6.8 q=24.8 size=N/A time=00:00:49.71 bitrate=N/A    frame= 1494 fps=6.8 q=24.8 size=N/A time=00:00:49.84 bitrate=N/A    frame= 1497 fps=6.8 q=24.8 size=N/A time=00:00:49.94 bitrate=N/A    frame= 1501 fps=6.7 q=24.8 size=N/A time=00:00:50.08 bitrate=N/A    frame= 1505 fps=6.7 q=24.8 size=N/A time=00:00:50.21 bitrate=N/A    frame= 1509 fps=6.7 q=24.8 size=N/A time=00:00:50.35 bitrate=N/A    frame= 1512 fps=6.7 q=24.8 size=N/A time=00:00:50.45 bitrate=N/A    frame= 1516 fps=6.7 q=24.8 size=N/A time=00:00:50.58 bitrate=N/A    frame= 1520 fps=6.7 q=24.8 size=N/A time=00:00:50.71 bitrate=N/A    frame= 1525 fps=6.7 q=24.8 size=N/A time=00:00:50.88 bitrate=N/A    frame= 1529 fps=6.7 q=24.8 size=N/A time=00:00:51.01 bitrate=N/A    frame= 1532 fps=6.7 q=24.8 size=N/A time=00:00:51.11 bitrate=N/A    frame= 1536 fps=6.7 q=24.8 size=N/A time=00:00:51.25 bitrate=N/A    frame= 1540 fps=6.7 q=24.8 size=N/A time=00:00:51.38 bitrate=N/A    frame= 1544 fps=6.7 q=24.8 size=N/A time=00:00:51.51 bitrate=N/A    frame= 1548 fps=6.7 q=24.8 size=N/A time=00:00:51.65 bitrate=N/A    frame= 1552 fps=6.7 q=24.8 size=N/A time=00:00:51.78 bitrate=N/A    frame= 1556 fps=6.7 q=24.8 size=N/A time=00:00:51.91 bitrate=N/A    frame= 1559 fps=6.7 q=24.8 size=N/A time=00:00:52.01 bitrate=N/A    frame= 1562 fps=6.7 q=24.8 size=N/A time=00:00:52.11 bitrate=N/A    frame= 1566 fps=6.7 q=24.8 size=N/A time=00:00:52.25 bitrate=N/A    frame= 1569 fps=6.7 q=24.8 size=N/A time=00:00:52.35 bitrate=N/A    frame= 1573 fps=6.7 q=24.8 size=N/A time=00:00:52.48 bitrate=N/A    frame= 1577 fps=6.7 q=24.8 size=N/A time=00:00:52.61 bitrate=N/A    frame= 1581 fps=6.7 q=24.8 size=N/A time=00:00:52.75 bitrate=N/A    frame= 1585 fps=6.7 q=24.8 size=N/A time=00:00:52.88 bitrate=N/A    frame= 1588 fps=6.7 q=24.8 size=N/A time=00:00:52.98 bitrate=N/A    frame= 1592 fps=6.7 q=24.8 size=N/A time=00:00:53.11 bitrate=N/A    frame= 1596 fps=6.7 q=24.8 size=N/A time=00:00:53.25 bitrate=N/A    frame= 1600 fps=6.7 q=24.8 size=N/A time=00:00:53.38 bitrate=N/A    frame= 1604 fps=6.7 q=24.8 size=N/A time=00:00:53.52 bitrate=N/A    frame= 1609 fps=6.8 q=24.8 size=N/A time=00:00:53.68 bitrate=N/A    frame= 1614 fps=6.8 q=24.8 size=N/A time=00:00:53.85 bitrate=N/A    frame= 1618 fps=6.8 q=24.8 size=N/A time=00:00:53.98 bitrate=N/A    frame= 1621 fps=6.8 q=24.8 size=N/A time=00:00:54.08 bitrate=N/A    frame= 1624 fps=6.8 q=24.8 size=N/A time=00:00:54.18 bitrate=N/A    frame= 1628 fps=6.8 q=24.8 size=N/A time=00:00:54.32 bitrate=N/A    frame= 1632 fps=6.8 q=24.8 size=N/A time=00:00:54.45 bitrate=N/A    frame= 1636 fps=6.8 q=24.8 size=N/A time=00:00:54.58 bitrate=N/A    frame= 1640 fps=6.8 q=24.8 size=N/A time=00:00:54.72 bitrate=N/A    frame= 1644 fps=6.8 q=24.8 size=N/A time=00:00:54.85 bitrate=N/A    frame= 1648 fps=6.8 q=24.8 size=N/A time=00:00:54.98 bitrate=N/A    frame= 1651 fps=6.8 q=24.8 size=N/A time=00:00:55.08 bitrate=N/A    frame= 1654 fps=6.8 q=24.8 size=N/A time=00:00:55.18 bitrate=N/A    frame= 1658 fps=6.8 q=24.8 size=N/A time=00:00:55.32 bitrate=N/A    frame= 1662 fps=6.8 q=24.8 size=N/A time=00:00:55.45 bitrate=N/A    frame= 1665 fps=6.8 q=24.8 size=N/A time=00:00:55.55 bitrate=N/A    frame= 1669 fps=6.7 q=24.8 size=N/A time=00:00:55.68 bitrate=N/A    frame= 1674 fps=6.8 q=24.8 size=N/A time=00:00:55.85 bitrate=N/A    frame= 1678 fps=6.7 q=24.8 size=N/A time=00:00:55.98 bitrate=N/A    frame= 1682 fps=6.7 q=24.8 size=N/A time=00:00:56.12 bitrate=N/A    frame= 1685 fps=6.7 q=24.8 size=N/A time=00:00:56.22 bitrate=N/A    frame= 1689 fps=6.7 q=24.8 size=N/A time=00:00:56.35 bitrate=N/A    frame= 1694 fps=6.7 q=24.8 size=N/A time=00:00:56.52 bitrate=N/A    frame= 1698 fps=6.7 q=24.8 size=N/A time=00:00:56.65 bitrate=N/A    frame= 1702 fps=6.8 q=24.8 size=N/A time=00:00:56.79 bitrate=N/A    frame= 1706 fps=6.7 q=24.8 size=N/A time=00:00:56.92 bitrate=N/A    frame= 1710 fps=6.7 q=24.8 size=N/A time=00:00:57.05 bitrate=N/A    frame= 1713 fps=6.7 q=24.8 size=N/A time=00:00:57.15 bitrate=N/A    frame= 1717 fps=6.7 q=24.8 size=N/A time=00:00:57.29 bitrate=N/A    frame= 1721 fps=6.7 q=24.8 size=N/A time=00:00:57.42 bitrate=N/A    frame= 1724 fps=6.7 q=24.8 size=N/A time=00:00:57.52 bitrate=N/A    frame= 1728 fps=6.7 q=24.8 size=N/A time=00:00:57.65 bitrate=N/A    frame= 1732 fps=6.7 q=24.8 size=N/A time=00:00:57.79 bitrate=N/A    frame= 1736 fps=6.7 q=24.8 size=N/A time=00:00:57.92 bitrate=N/A    frame= 1740 fps=6.7 q=24.8 size=N/A time=00:00:58.05 bitrate=N/A    frame= 1743 fps=6.7 q=24.8 size=N/A time=00:00:58.15 bitrate=N/A    frame= 1747 fps=6.7 q=24.8 size=N/A time=00:00:58.29 bitrate=N/A    frame= 1751 fps=6.7 q=24.8 size=N/A time=00:00:58.42 bitrate=N/A    frame= 1755 fps=6.7 q=24.8 size=N/A time=00:00:58.55 bitrate=N/A    frame= 1759 fps=6.7 q=24.8 size=N/A time=00:00:58.69 bitrate=N/A    frame= 1763 fps=6.7 q=24.8 size=N/A time=00:00:58.82 bitrate=N/A    frame= 1767 fps=6.7 q=24.8 size=N/A time=00:00:58.95 bitrate=N/A    frame= 1770 fps=6.7 q=24.8 size=N/A time=00:00:59.05 bitrate=N/A    frame= 1773 fps=6.7 q=24.8 size=N/A time=00:00:59.15 bitrate=N/A    frame= 1778 fps=6.7 q=24.8 size=N/A time=00:00:59.32 bitrate=N/A    frame= 1783 fps=6.7 q=24.8 size=N/A time=00:00:59.49 bitrate=N/A    frame= 1787 fps=6.7 q=24.8 size=N/A time=00:00:59.62 bitrate=N/A    frame= 1791 fps=6.7 q=24.8 size=N/A time=00:00:59.75 bitrate=N/A    frame= 1795 fps=6.7 q=24.8 size=N/A time=00:00:59.89 bitrate=N/A    frame= 1800 fps=6.7 q=24.8 size=N/A time=00:01:00.06 bitrate=N/A    frame= 1803 fps=6.7 q=24.8 size=N/A time=00:01:00.16 bitrate=N/A    frame= 1807 fps=6.7 q=24.8 size=N/A time=00:01:00.29 bitrate=N/A    frame= 1811 fps=6.7 q=24.8 size=N/A time=00:01:00.42 bitrate=N/A    frame= 1815 fps=6.7 q=24.8 size=N/A time=00:01:00.56 bitrate=N/A    frame= 1819 fps=6.7 q=24.8 size=N/A time=00:01:00.69 bitrate=N/A    frame= 1824 fps=6.7 q=24.8 size=N/A time=00:01:00.86 bitrate=N/A    frame= 1828 fps=6.7 q=24.8 size=N/A time=00:01:00.99 bitrate=N/A    frame= 1831 fps=6.7 q=24.8 size=N/A time=00:01:01.09 bitrate=N/A    frame= 1835 fps=6.7 q=24.8 size=N/A time=00:01:01.22 bitrate=N/A    frame= 1839 fps=6.7 q=24.8 size=N/A time=00:01:01.36 bitrate=N/A    frame= 1843 fps=6.7 q=24.8 size=N/A time=00:01:01.49 bitrate=N/A    frame= 1847 fps=6.7 q=24.8 size=N/A time=00:01:01.62 bitrate=N/A    frame= 1851 fps=6.7 q=24.8 size=N/A time=00:01:01.76 bitrate=N/A    frame= 1856 fps=6.8 q=24.8 size=N/A time=00:01:01.92 bitrate=N/A    frame= 1861 fps=6.7 q=24.8 size=N/A time=00:01:02.09 bitrate=N/A    frame= 1865 fps=6.8 q=24.8 size=N/A time=00:01:02.22 bitrate=N/A    frame= 1869 fps=6.8 q=24.8 size=N/A time=00:01:02.36 bitrate=N/A    frame= 1873 fps=6.8 q=24.8 size=N/A time=00:01:02.49 bitrate=N/A    frame= 1877 fps=6.8 q=24.8 size=N/A time=00:01:02.62 bitrate=N/A    frame= 1881 fps=6.8 q=24.8 size=N/A time=00:01:02.76 bitrate=N/A    frame= 1885 fps=6.8 q=24.8 size=N/A time=00:01:02.89 bitrate=N/A    frame= 1889 fps=6.8 q=24.8 size=N/A time=00:01:03.02 bitrate=N/A    frame= 1892 fps=6.7 q=24.8 size=N/A time=00:01:03.12 bitrate=N/A    frame= 1897 fps=6.8 q=24.8 size=N/A time=00:01:03.29 bitrate=N/A    frame= 1901 fps=6.8 q=24.8 size=N/A time=00:01:03.43 bitrate=N/A    frame= 1905 fps=6.8 q=24.8 size=N/A time=00:01:03.56 bitrate=N/A    frame= 1909 fps=6.8 q=24.8 size=N/A time=00:01:03.69 bitrate=N/A    frame= 1913 fps=6.8 q=24.8 size=N/A time=00:01:03.83 bitrate=N/A    frame= 1917 fps=6.8 q=24.8 size=N/A time=00:01:03.96 bitrate=N/A    frame= 1921 fps=6.8 q=24.8 size=N/A time=00:01:04.09 bitrate=N/A    frame= 1926 fps=6.8 q=24.8 size=N/A time=00:01:04.26 bitrate=N/A    frame= 1931 fps=6.8 q=24.8 size=N/A time=00:01:04.43 bitrate=N/A    frame= 1936 fps=6.8 q=24.8 size=N/A time=00:01:04.59 bitrate=N/A    frame= 1941 fps=6.8 q=24.8 size=N/A time=00:01:04.76 bitrate=N/A    frame= 1946 fps=6.8 q=24.8 size=N/A time=00:01:04.93 bitrate=N/A    frame= 1950 fps=6.8 q=24.8 size=N/A time=00:01:05.06 bitrate=N/A    frame= 1954 fps=6.8 q=24.8 size=N/A time=00:01:05.19 bitrate=N/A    frame= 1959 fps=6.8 q=24.8 size=N/A time=00:01:05.36 bitrate=N/A    frame= 1964 fps=6.8 q=24.8 size=N/A time=00:01:05.53 bitrate=N/A    frame= 1969 fps=6.8 q=24.8 size=N/A time=00:01:05.69 bitrate=N/A    frame= 1974 fps=6.8 q=24.8 size=N/A time=00:01:05.86 bitrate=N/A    frame= 1979 fps=6.8 q=24.8 size=N/A time=00:01:06.03 bitrate=N/A    frame= 1983 fps=6.8 q=24.8 size=N/A time=00:01:06.16 bitrate=N/A    frame= 1988 fps=6.8 q=24.8 size=N/A time=00:01:06.33 bitrate=N/A    frame= 1993 fps=6.8 q=24.8 size=N/A time=00:01:06.49 bitrate=N/A    frame= 1998 fps=6.8 q=24.8 size=N/A time=00:01:06.66 bitrate=N/A    frame= 2003 fps=6.8 q=24.8 size=N/A time=00:01:06.83 bitrate=N/A    frame= 2008 fps=6.8 q=24.8 size=N/A time=00:01:07.00 bitrate=N/A    frame= 2012 fps=6.8 q=24.8 size=N/A time=00:01:07.13 bitrate=N/A    frame= 2017 fps=6.8 q=24.8 size=N/A time=00:01:07.30 bitrate=N/A    frame= 2022 fps=6.8 q=24.8 size=N/A time=00:01:07.46 bitrate=N/A    frame= 2027 fps=6.8 q=24.8 size=N/A time=00:01:07.63 bitrate=N/A    frame= 2032 fps=6.8 q=24.8 size=N/A time=00:01:07.80 bitrate=N/A    frame= 2037 fps=6.8 q=24.8 size=N/A time=00:01:07.96 bitrate=N/A    frame= 2041 fps=6.8 q=24.8 size=N/A time=00:01:08.10 bitrate=N/A    frame= 2046 fps=6.8 q=24.8 size=N/A time=00:01:08.26 bitrate=N/A    frame= 2051 fps=6.8 q=24.8 size=N/A time=00:01:08.43 bitrate=N/A    frame= 2056 fps=6.8 q=24.8 size=N/A time=00:01:08.60 bitrate=N/A    frame= 2061 fps=6.9 q=24.8 size=N/A time=00:01:08.76 bitrate=N/A    frame= 2066 fps=6.9 q=24.8 size=N/A time=00:01:08.93 bitrate=N/A    frame= 2070 fps=6.9 q=24.8 size=N/A time=00:01:09.06 bitrate=N/A    frame= 2074 fps=6.9 q=24.8 size=N/A time=00:01:09.20 bitrate=N/A    frame= 2079 fps=6.9 q=24.8 size=N/A time=00:01:09.36 bitrate=N/A    frame= 2084 fps=6.9 q=24.8 size=N/A time=00:01:09.53 bitrate=N/A    frame= 2089 fps=6.9 q=24.8 size=N/A time=00:01:09.70 bitrate=N/A    frame= 2094 fps=6.9 q=24.8 size=N/A time=00:01:09.86 bitrate=N/A    frame= 2099 fps=6.9 q=24.8 size=N/A time=00:01:10.03 bitrate=N/A    frame= 2103 fps=6.9 q=24.8 size=N/A time=00:01:10.17 bitrate=N/A    frame= 2108 fps=6.9 q=24.8 size=N/A time=00:01:10.33 bitrate=N/A    frame= 2113 fps=6.9 q=24.8 size=N/A time=00:01:10.50 bitrate=N/A    frame= 2118 fps=6.9 q=24.8 size=N/A time=00:01:10.67 bitrate=N/A    frame= 2122 fps=6.9 q=24.8 size=N/A time=00:01:10.80 bitrate=N/A    frame= 2127 fps=6.9 q=24.8 size=N/A time=00:01:10.97 bitrate=N/A    frame= 2132 fps=6.9 q=24.8 size=N/A time=00:01:11.13 bitrate=N/A    frame= 2137 fps=6.9 q=24.8 size=N/A time=00:01:11.30 bitrate=N/A    frame= 2142 fps=6.9 q=24.8 size=N/A time=00:01:11.47 bitrate=N/A    frame= 2147 fps=6.9 q=24.8 size=N/A time=00:01:11.63 bitrate=N/A    frame= 2152 fps=6.9 q=24.8 size=N/A time=00:01:11.80 bitrate=N/A    frame= 2157 fps=6.9 q=24.8 size=N/A time=00:01:11.97 bitrate=N/A    frame= 2161 fps=6.9 q=24.8 size=N/A time=00:01:12.10 bitrate=N/A    frame= 2166 fps=6.9 q=24.8 size=N/A time=00:01:12.27 bitrate=N/A    frame= 2171 fps=6.9 q=24.8 size=N/A time=00:01:12.43 bitrate=N/A    frame= 2176 fps=6.9 q=24.8 size=N/A time=00:01:12.60 bitrate=N/A    frame= 2181 fps=6.9 q=24.8 size=N/A time=00:01:12.77 bitrate=N/A    frame= 2186 fps=6.9 q=24.8 size=N/A time=00:01:12.93 bitrate=N/A    frame= 2191 fps=6.9 q=24.8 size=N/A time=00:01:13.10 bitrate=N/A    frame= 2196 fps=6.9 q=24.8 size=N/A time=00:01:13.27 bitrate=N/A    frame= 2201 fps=6.9 q=24.8 size=N/A time=00:01:13.44 bitrate=N/A    frame= 2206 fps=6.9 q=24.8 size=N/A time=00:01:13.60 bitrate=N/A    frame= 2211 fps=6.9 q=24.8 size=N/A time=00:01:13.77 bitrate=N/A    frame= 2216 fps=6.9 q=24.8 size=N/A time=00:01:13.94 bitrate=N/A    frame= 2221 fps=6.9 q=24.8 size=N/A time=00:01:14.10 bitrate=N/A    frame= 2226 fps=6.9 q=24.8 size=N/A time=00:01:14.27 bitrate=N/A    frame= 2231 fps=6.9 q=24.8 size=N/A time=00:01:14.44 bitrate=N/A    frame= 2236 fps=6.9 q=24.8 size=N/A time=00:01:14.60 bitrate=N/A    frame= 2241 fps=6.9 q=24.8 size=N/A time=00:01:14.77 bitrate=N/A    frame= 2246 fps=7.0 q=24.8 size=N/A time=00:01:14.94 bitrate=N/A    frame= 2250 fps=7.0 q=24.8 size=N/A time=00:01:15.07 bitrate=N/A    frame= 2254 fps=7.0 q=24.8 size=N/A time=00:01:15.20 bitrate=N/A    frame= 2259 fps=7.0 q=24.8 size=N/A time=00:01:15.37 bitrate=N/A    frame= 2264 fps=7.0 q=24.8 size=N/A time=00:01:15.54 bitrate=N/A    frame= 2269 fps=7.0 q=24.8 size=N/A time=00:01:15.70 bitrate=N/A    frame= 2274 fps=7.0 q=24.8 size=N/A time=00:01:15.87 bitrate=N/A    frame= 2278 fps=7.0 q=24.8 size=N/A time=00:01:16.00 bitrate=N/A    frame= 2282 fps=7.0 q=24.8 size=N/A time=00:01:16.14 bitrate=N/A    frame= 2287 fps=7.0 q=24.8 size=N/A time=00:01:16.30 bitrate=N/A    frame= 2292 fps=7.0 q=24.8 size=N/A time=00:01:16.47 bitrate=N/A    frame= 2297 fps=7.0 q=24.8 size=N/A time=00:01:16.64 bitrate=N/A    frame= 2301 fps=7.0 q=24.8 size=N/A time=00:01:16.77 bitrate=N/A    frame= 2306 fps=7.0 q=24.8 size=N/A time=00:01:16.94 bitrate=N/A    frame= 2310 fps=7.0 q=24.8 size=N/A time=00:01:17.07 bitrate=N/A    frame= 2314 fps=7.0 q=24.8 size=N/A time=00:01:17.21 bitrate=N/A    frame= 2318 fps=7.0 q=24.8 size=N/A time=00:01:17.34 bitrate=N/A    frame= 2322 fps=7.0 q=24.8 size=N/A time=00:01:17.47 bitrate=N/A    frame= 2326 fps=7.0 q=24.8 size=N/A time=00:01:17.61 bitrate=N/A    frame= 2331 fps=7.0 q=24.8 size=N/A time=00:01:17.77 bitrate=N/A    frame= 2336 fps=7.0 q=24.8 size=N/A time=00:01:17.94 bitrate=N/A    frame= 2340 fps=7.0 q=24.8 size=N/A time=00:01:18.07 bitrate=N/A    frame= 2345 fps=7.0 q=24.8 size=N/A time=00:01:18.24 bitrate=N/A    frame= 2350 fps=7.0 q=24.8 size=N/A time=00:01:18.41 bitrate=N/A    frame= 2354 fps=7.0 q=24.8 size=N/A time=00:01:18.54 bitrate=N/A    frame= 2358 fps=7.0 q=24.8 size=N/A time=00:01:18.67 bitrate=N/A    frame= 2363 fps=7.0 q=24.8 size=N/A time=00:01:18.84 bitrate=N/A    frame= 2367 fps=7.0 q=24.8 size=N/A time=00:01:18.97 bitrate=N/A    frame= 2371 fps=7.0 q=24.8 size=N/A time=00:01:19.11 bitrate=N/A    frame= 2376 fps=7.0 q=24.8 size=N/A time=00:01:19.27 bitrate=N/A    frame= 2381 fps=7.0 q=24.8 size=N/A time=00:01:19.44 bitrate=N/A    frame= 2386 fps=7.0 q=24.8 size=N/A time=00:01:19.61 bitrate=N/A    frame= 2390 fps=7.0 q=24.8 size=N/A time=00:01:19.74 bitrate=N/A    frame= 2395 fps=7.0 q=24.8 size=N/A time=00:01:19.91 bitrate=N/A    frame= 2399 fps=7.0 q=24.8 size=N/A time=00:01:20.04 bitrate=N/A    frame= 2403 fps=7.0 q=24.8 size=N/A time=00:01:20.18 bitrate=N/A    frame= 2408 fps=7.0 q=24.8 size=N/A time=00:01:20.34 bitrate=N/A    frame= 2413 fps=7.0 q=24.8 size=N/A time=00:01:20.51 bitrate=N/A    frame= 2418 fps=7.0 q=24.8 size=N/A time=00:01:20.68 bitrate=N/A    frame= 2423 fps=7.0 q=24.8 size=N/A time=00:01:20.84 bitrate=N/A    frame= 2427 fps=7.0 q=24.8 size=N/A time=00:01:20.98 bitrate=N/A    frame= 2431 fps=7.0 q=24.8 size=N/A time=00:01:21.11 bitrate=N/A    frame= 2436 fps=7.0 q=24.8 size=N/A time=00:01:21.28 bitrate=N/A    frame= 2441 fps=7.0 q=24.8 size=N/A time=00:01:21.44 bitrate=N/A    frame= 2446 fps=7.0 q=24.8 size=N/A time=00:01:21.61 bitrate=N/A    frame= 2451 fps=7.0 q=24.8 size=N/A time=00:01:21.78 bitrate=N/A    frame= 2456 fps=7.0 q=24.8 size=N/A time=00:01:21.94 bitrate=N/A    frame= 2460 fps=7.0 q=24.8 size=N/A time=00:01:22.08 bitrate=N/A    frame= 2464 fps=7.0 q=24.8 size=N/A time=00:01:22.21 bitrate=N/A    frame= 2469 fps=7.0 q=24.8 size=N/A time=00:01:22.38 bitrate=N/A    frame= 2474 fps=7.0 q=24.8 size=N/A time=00:01:22.54 bitrate=N/A    frame= 2474 fps=7.0 q=24.8 Lsize=N/A time=00:01:22.54 bitrate=N/A    
video:2029565kB audio:0kB subtitle:0kB other streams:0kB global headers:0kB muxing overhead: unknown
+ turkic load DJI_0058_nagyon_sok_turas_Homokmegy_2018.03.31._diffuz_kalaszos_T1 /home/horvathandras/vatic/vatic/videos/DJI_0058_nagyon_sok_turas_Homokmegy_2018.03.31._diffuz_kalaszos_T1 $'Pozit\303\255vROI' $'Negat\303\255vROI' $'T\303\272r\303\241s' '~Friss' '~Régebbi' $'R\303\241g\303\241s' '~Friss' '~Régebbi' $'T\303\266r\303\251s' '~Friss' '~Régebbi' $'Tapos\303\241s' '~Friss' '~Régebbi' $'Eg\303\251szs\303\251gesN\303\266v\303\251ny' $'Egy\303\251b1' $'Egy\303\251b2' $'Egy\303\251b3' $'Egy\303\251b4' $'Egy\303\251b5' --offline --title '$filenameNoDot Video' --length 1000 --description 'vatic annotation'
+ turkic publish --offline
+ mkdir /home/horvathandras/vatic/vatic/public/videothumbnails/DJI_0058_nagyon_sok_turas_Homokmegy_2018.03.31._diffuz_kalaszos_T1
mkdir: cannot create directory '/home/horvathandras/vatic/vatic/public/videothumbnails/DJI_0058_nagyon_sok_turas_Homokmegy_2018.03.31._diffuz_kalaszos_T1': File exists
+ cp /home/horvathandras/vatic/vatic/videos/DJI_0058_nagyon_sok_turas_Homokmegy_2018.03.31._diffuz_kalaszos_T1/0/0/31.jpg /home/horvathandras/vatic/vatic/public/videothumbnails/DJI_0058_nagyon_sok_turas_Homokmegy_2018.03.31._diffuz_kalaszos_T1/thumb.jpg
